<svg width="423" height="35" viewBox="0 0 423 35" fill="none" xmlns="http://www.w3.org/2000/svg">
<g opacity="0.4">
<path fill-rule="evenodd" clip-rule="evenodd" d="M25.1419 26.6261C25.049 26.479 25.0274 14.1038 25.1195 13.8623C25.1722 13.7242 25.3606 13.7059 26.4806 13.7297L27.7806 13.7574L27.8072 16.025L27.8338 18.2928L28.2841 17.947C29.5513 16.9741 31.665 17.0163 32.4339 18.0298C33.0028 18.7799 33.018 18.9078 33.0228 22.9649L33.027 26.6977H31.6907H30.3543L30.3048 23.391C30.2635 20.635 30.2657 19.9842 29.9558 19.7469C29.8479 19.6643 29.7021 19.6318 29.5036 19.578C29.1623 19.4856 29.012 19.4942 28.6688 19.626C28.4486 19.7106 28.2902 19.7614 28.1753 19.8623C27.8641 20.1354 27.8708 20.7759 27.8301 23.448L27.7806 26.6977L26.5014 26.7256C25.5446 26.7465 25.2021 26.7215 25.1419 26.6261ZM45.1038 16.2389C45.3215 15.5832 45.5369 14.9899 45.5824 14.9204C45.6396 14.833 45.8835 14.8032 46.3743 14.8233L47.0835 14.8524L47.1113 16.118L47.1389 17.3838L48.1507 17.412L49.1623 17.4404L49.1903 18.5602L49.2183 19.6801H48.1757H47.133V21.8509C47.133 23.5526 47.1629 24.0629 47.2713 24.212C47.3834 24.3661 47.5759 24.4122 48.286 24.455L49.1623 24.5078V25.4937V26.4796L48.6179 26.6731C47.8132 26.9589 46.5483 26.9522 45.8826 26.6585C45.2629 26.3851 44.9379 26.057 44.6397 25.4036C44.4245 24.9322 44.4107 24.7682 44.3785 22.293L44.3443 19.6801H43.7589H43.1735V18.7872V17.8943L43.9406 17.6628L44.7078 17.4312L45.1038 16.2389ZM82.9648 16.1961C83.1407 15.6213 83.3272 15.0706 83.3792 14.9725C83.4591 14.8217 83.584 14.7986 84.1856 14.8232L84.8976 14.8524L84.9253 16.118L84.9529 17.3838L85.9647 17.412L86.9763 17.4404L87.0043 18.5567L87.0323 19.673L86.0144 19.7015L84.9966 19.7298L84.9699 21.8861L84.9432 24.0424L85.206 24.2502C85.422 24.4211 85.6076 24.458 86.2508 24.458H87.0328L87.0046 25.4719L86.9763 26.4858L86.4319 26.6818C85.7266 26.9356 84.3784 26.9495 83.814 26.7088C83.2006 26.4471 82.809 26.0957 82.5567 25.5805C82.3341 25.1261 82.3217 24.9858 82.2743 22.4174L82.2248 19.7298L81.6309 19.6801L81.037 19.6303L81.0079 18.8494C80.9914 18.408 81.0237 18.0142 81.082 17.9435C81.1388 17.8747 81.4731 17.74 81.8249 17.6443C82.1768 17.5485 82.5052 17.4187 82.5548 17.3558C82.6045 17.2928 82.7889 16.771 82.9648 16.1961ZM34.9549 18.7038C35.4947 17.9544 36.4323 17.4521 37.5805 17.2971C37.993 17.2413 38.1978 17.2125 38.4028 17.2106C38.622 17.2085 38.8415 17.2372 39.3154 17.2964C41.7622 17.602 42.8735 19.0929 42.8735 22.069C42.8735 25.0734 41.7674 26.5501 39.2886 26.855C37.2049 27.1113 35.4661 26.4349 34.7345 25.0832C33.7926 23.3429 33.9024 20.1648 34.9549 18.7038ZM53.6542 18.1501C53.9908 17.7898 54.7678 17.4032 55.3606 17.301C56.6762 17.0743 57.8674 17.5304 58.2247 18.3977C58.2897 18.5556 58.3598 18.6847 58.3806 18.6847C58.4014 18.6847 58.5825 18.502 58.783 18.2787C59.2485 17.7607 59.9094 17.4252 60.721 17.2948C62.2837 17.0437 63.3649 17.6749 63.7114 19.0405C63.8385 19.5416 63.8604 20.2497 63.8388 23.1714L63.8128 26.6977H62.4764H61.1401L61.0906 23.3631C61.0633 21.529 61.0084 19.9779 60.9684 19.9162C60.8622 19.7518 60.2551 19.481 59.9933 19.481C59.6646 19.481 58.986 19.8373 58.8138 20.1003C58.6924 20.2857 58.6563 20.9092 58.6158 23.5124L58.5663 26.6977L57.2547 26.7254L55.9431 26.7532V23.56C55.9431 20.9594 55.9164 20.3149 55.799 20.0867C55.6468 19.7908 55.1163 19.481 54.7619 19.481C54.4155 19.481 53.9119 19.7371 53.683 20.0298C53.4733 20.2978 53.4684 20.376 53.4669 23.4014C53.466 25.1048 53.4292 26.556 53.3848 26.6261C53.3246 26.7215 52.9821 26.7465 52.0253 26.7256L50.7462 26.6977V22.069V17.4404H51.934H53.1219L53.2779 17.9131L53.434 18.3859L53.6542 18.1501ZM65.5204 17.706C65.7596 17.5819 66.8154 17.3953 67.8219 17.2991C69.034 17.1833 69.07 17.1832 70.0491 17.2943C71.5564 17.4653 72.3554 18.0283 72.6609 19.1345C72.7315 19.3901 72.7705 20.8117 72.7708 23.1391L72.7713 26.7474H71.5319C70.7072 26.7474 70.4178 26.7611 70.2706 26.622C70.1764 26.533 70.1404 26.3815 70.0598 26.124C70.0116 25.9701 69.9491 25.9913 69.5528 26.2954C68.9899 26.7274 68.4771 26.875 67.5223 26.8799C66.8815 26.8831 66.7026 26.8428 66.2431 26.5915C65.2615 26.0549 64.8083 25.1118 64.867 23.7275C64.9119 22.6681 65.2021 22.0573 65.8782 21.5989C66.5569 21.1388 66.8978 21.0638 68.589 21.0023L70.0986 20.9474V20.5848C70.0986 19.7401 69.5862 19.5659 67.1599 19.5855C66.2773 19.5927 65.5083 19.5694 65.4511 19.5338C65.3918 19.497 65.3471 19.1097 65.3471 18.6325C65.3471 17.9362 65.3762 17.7807 65.5204 17.706ZM77.4103 18.2971C77.9531 17.7225 78.5096 17.42 79.2271 17.3091C79.5148 17.2647 79.807 17.2478 79.8765 17.2714C79.9727 17.3041 79.9964 17.6394 79.9755 18.6715L79.9481 20.0285L79.0572 20.0844C78.0415 20.1482 77.5188 20.3378 77.2583 20.7372C77.097 20.9844 77.072 21.323 77.0279 23.8561L76.9784 26.6977H75.642H74.3057V22.069V17.4404L75.4701 17.4123C76.1946 17.3949 76.5055 17.3765 76.6624 17.5241C76.7917 17.6457 76.8166 17.8798 76.8822 18.3198L76.9512 18.7829L77.4103 18.2971ZM39.9482 22.0695C39.9446 20.6192 39.7571 20.0123 39.2274 19.7369C38.9052 19.5694 38.2082 19.5392 37.8664 19.6781C37.305 19.9062 37.0361 20.7083 37.0361 22.1554C37.0361 23.8329 37.465 24.5589 38.4543 24.556C39.152 24.554 39.4186 24.3956 39.7062 23.8115C39.9281 23.3612 39.9508 23.1969 39.9482 22.0695ZM68.8161 24.8333C69.6201 24.7555 70.0986 24.1525 70.0986 23.2169V22.7658L69.1335 22.7721C68.6027 22.7756 68.0704 22.8181 67.9507 22.8665C67.6917 22.9715 67.4259 23.4498 67.4259 23.811C67.4259 24.5153 67.9696 24.9151 68.8161 24.8333Z" fill="#D3EAFF" fill-opacity="0.7"/>
<path fill-rule="evenodd" clip-rule="evenodd" d="M10.5564 3.64461C8.93879 4.4059 7.67885 5.81469 6.70231 7.95421C6.51988 8.35387 6.12045 9.37236 5.81467 10.2176C5.14917 12.0575 5.04622 12.2376 4.685 12.1956C4.43941 12.1672 4.41674 12.1255 4.38952 11.6533C4.37061 11.3266 4.43496 10.918 4.5677 10.5219C4.90734 9.50804 4.78588 9.56776 3.71897 10.9392C2.63642 12.3309 1.47279 14.5598 0.852424 16.43C-0.297439 19.8965 -0.235868 23.1616 1.02704 25.7022C2.32816 28.3196 4.71896 30.3161 7.40118 31.0255C9.2408 31.512 10.8797 31.511 12.7312 31.0226C15.3433 30.3333 17.7134 28.4041 18.9604 25.952C19.8843 24.1351 20.1564 22.7931 20.0806 20.4266C20.0213 18.5761 19.7426 17.0815 19.1165 15.2555C18.5088 13.4833 17.3967 11.2191 17.1339 11.2191C17.0843 11.2191 17.0713 11.419 17.1046 11.6645C17.1877 12.2734 16.9698 12.6127 16.4958 12.6127C16.0309 12.6127 15.9012 12.3832 15.6499 11.1151C15.3663 9.68472 14.9491 8.84191 14.1356 8.05644C13.4422 7.38683 13.1125 7.24618 13.2811 7.69192C13.3341 7.83237 13.3776 8.239 13.3776 8.59545C13.3776 9.18413 13.3501 9.27133 13.0781 9.54477C12.8382 9.78605 12.7262 9.83264 12.515 9.77938C12.1008 9.67486 11.7435 9.37176 11.4005 8.83445C10.4726 7.38036 10.3654 5.72023 11.09 4.02605C11.4151 3.26616 11.3934 3.25073 10.5564 3.64461ZM13.2861 17.9815C12.6061 17.299 12.0475 16.9693 11.1745 16.7357C9.70853 16.3432 8.11658 16.7622 6.95107 17.8472C4.54404 20.0882 5.14867 24.019 8.11866 25.4373C8.7903 25.758 8.97541 25.8009 9.84009 25.8358C10.6372 25.868 10.9268 25.8366 11.4745 25.6589C13.2678 25.0771 14.5193 23.455 14.6403 21.5561C14.7307 20.1367 14.2995 18.9987 13.2861 17.9815Z" fill="#D3EAFF"/>
<path fill-rule="evenodd" clip-rule="evenodd" d="M141.903 16.613C141.812 16.7184 141.733 16.8358 141.664 16.9653C141.496 17.2759 141.413 17.6406 141.413 18.0597C141.413 18.4836 141.496 18.8533 141.664 19.1688C141.704 19.2441 141.748 19.3152 141.795 19.3824C140.783 27.7726 133.638 34.2746 124.975 34.2746C115.618 34.2746 108.033 26.6892 108.033 17.3321C108.033 7.97505 115.618 0.389648 124.975 0.389648C134.091 0.389648 141.526 7.5895 141.903 16.613ZM132.448 18.9839V16.5956H133.505V16.041H132.448V15.0206H131.775V16.041H131.25V16.5956H131.775V18.9839C131.775 19.3783 131.869 19.6617 132.056 19.8343C132.243 20.0068 132.524 20.0931 132.899 20.0931H133.505V19.5237H133.01C132.803 19.5237 132.657 19.4843 132.573 19.4054C132.49 19.3216 132.448 19.1811 132.448 18.9839ZM120.865 16.1667C120.618 16.0336 120.337 15.9671 120.022 15.9671C119.701 15.9671 119.41 16.0459 119.149 16.2037C118.888 16.3614 118.7 16.5833 118.587 16.8692C118.459 16.5734 118.264 16.3491 118.003 16.1963C117.742 16.0435 117.441 15.9671 117.101 15.9671C116.83 15.9671 116.581 16.0238 116.354 16.1371C116.132 16.2505 115.955 16.4132 115.822 16.6252V16.041H115.149V20.0931H115.822V17.86C115.822 17.4361 115.925 17.1132 116.132 16.8914C116.339 16.6646 116.618 16.5512 116.968 16.5512C117.308 16.5512 117.577 16.6597 117.774 16.8766C117.976 17.0885 118.077 17.3966 118.077 17.8009V20.0931H118.742V17.86C118.742 17.4361 118.846 17.1132 119.053 16.8914C119.26 16.6646 119.538 16.5512 119.888 16.5512C120.229 16.5512 120.497 16.6597 120.694 16.8766C120.897 17.0885 120.998 17.3966 120.998 17.8009V20.0931H121.663V17.7047C121.663 17.3301 121.592 17.0121 121.449 16.7509C121.306 16.4896 121.111 16.2949 120.865 16.1667ZM122.767 16.9653C122.599 17.2759 122.515 17.6382 122.515 18.0523C122.515 18.4614 122.599 18.8262 122.767 19.1466C122.934 19.467 123.164 19.716 123.455 19.8934C123.745 20.0709 124.071 20.1596 124.431 20.1596C124.781 20.1596 125.086 20.0832 125.347 19.9304C125.614 19.7727 125.813 19.5755 125.946 19.3389V20.0931H126.627V16.041H125.946V16.7804C125.818 16.5488 125.624 16.3565 125.362 16.2037C125.101 16.0509 124.793 15.9745 124.438 15.9745C124.078 15.9745 123.75 16.0607 123.455 16.2333C123.164 16.4058 122.934 16.6498 122.767 16.9653ZM125.762 17.2611C125.885 17.4878 125.946 17.754 125.946 18.0597C125.946 18.3653 125.885 18.6339 125.762 18.8656C125.638 19.0924 125.471 19.2674 125.259 19.3906C125.052 19.5089 124.822 19.5681 124.571 19.5681C124.32 19.5681 124.09 19.5089 123.883 19.3906C123.676 19.2674 123.511 19.0924 123.388 18.8656C123.265 18.6339 123.203 18.3628 123.203 18.0523C123.203 17.7466 123.265 17.4804 123.388 17.2537C123.511 17.0269 123.676 16.8544 123.883 16.7361C124.09 16.6178 124.32 16.5586 124.571 16.5586C124.822 16.5586 125.052 16.6202 125.259 16.7435C125.471 16.8618 125.638 17.0343 125.762 17.2611ZM129.198 20.1596C128.888 20.1596 128.609 20.1079 128.363 20.0043C128.116 19.8959 127.921 19.748 127.779 19.5607C127.636 19.3684 127.557 19.1491 127.542 18.9026H128.237C128.257 19.1047 128.35 19.2698 128.518 19.398C128.691 19.5262 128.915 19.5903 129.191 19.5903C129.447 19.5903 129.649 19.5336 129.797 19.4202C129.945 19.3068 130.019 19.1639 130.019 18.9913C130.019 18.8139 129.94 18.6832 129.782 18.5994C129.625 18.5107 129.381 18.4244 129.05 18.3406C128.75 18.2618 128.503 18.1829 128.311 18.104C128.124 18.0202 127.961 17.8994 127.823 17.7417C127.69 17.579 127.623 17.3671 127.623 17.1058C127.623 16.8988 127.685 16.709 127.808 16.5364C127.931 16.3639 128.106 16.2283 128.333 16.1297C128.56 16.0262 128.819 15.9745 129.11 15.9745C129.558 15.9745 129.92 16.0878 130.196 16.3146C130.473 16.5414 130.62 16.8519 130.64 17.2463H129.967C129.952 17.0343 129.866 16.8642 129.708 16.7361C129.556 16.6079 129.349 16.5438 129.087 16.5438C128.846 16.5438 128.654 16.5956 128.511 16.6991C128.368 16.8026 128.296 16.9382 128.296 17.1058C128.296 17.2389 128.338 17.3498 128.422 17.4385C128.511 17.5223 128.619 17.5913 128.747 17.6456C128.88 17.6949 129.063 17.7516 129.294 17.8156C129.585 17.8945 129.822 17.9734 130.004 18.0523C130.187 18.1262 130.342 18.2396 130.47 18.3924C130.603 18.5452 130.672 18.7449 130.677 18.9913C130.677 19.2132 130.615 19.4128 130.492 19.5903C130.369 19.7677 130.194 19.9082 129.967 20.0117C129.745 20.1103 129.489 20.1596 129.198 20.1596ZM138.018 17.9118C138.018 18.0399 138.01 18.1755 137.995 18.3185H134.757C134.781 18.7177 134.917 19.0308 135.163 19.2575C135.415 19.4793 135.718 19.5903 136.073 19.5903C136.364 19.5903 136.605 19.5237 136.797 19.3906C136.995 19.2526 137.133 19.0702 137.212 18.8434H137.936C137.828 19.2329 137.611 19.5508 137.285 19.7973C136.96 20.0388 136.556 20.1596 136.073 20.1596C135.688 20.1596 135.343 20.0734 135.038 19.9008C134.737 19.7283 134.5 19.4843 134.328 19.1688C134.155 18.8484 134.069 18.4787 134.069 18.0597C134.069 17.6406 134.153 17.2734 134.32 16.9579C134.488 16.6424 134.722 16.4009 135.023 16.2333C135.328 16.0607 135.678 15.9745 136.073 15.9745C136.457 15.9745 136.797 16.0583 137.093 16.2259C137.389 16.3935 137.616 16.6252 137.774 16.9209C137.936 17.2118 138.018 17.5421 138.018 17.9118ZM137.322 17.7713C137.322 17.5149 137.266 17.2956 137.152 17.1132C137.039 16.9259 136.884 16.7854 136.687 16.6917C136.494 16.5931 136.28 16.5438 136.043 16.5438C135.703 16.5438 135.412 16.6523 135.171 16.8692C134.934 17.0861 134.799 17.3868 134.764 17.7713H137.322ZM140.081 16.1593C139.864 16.2875 139.697 16.4674 139.579 16.6991V16.041H138.906V20.0931H139.579V17.8896C139.579 17.0713 139.956 16.6621 140.71 16.6621H140.887V15.9671C140.572 15.9671 140.303 16.0312 140.081 16.1593Z" fill="#D3EAFF" fill-opacity="0.7"/>
<path fill-rule="evenodd" clip-rule="evenodd" d="M131.43 16.5956C131.42 16.8398 131.415 17.0854 131.415 17.3321C131.415 26.6892 139 34.2746 148.357 34.2746C157.714 34.2746 165.3 26.6892 165.3 17.3321C165.3 7.97505 157.714 0.389648 148.357 0.389648C139.434 0.389649 132.123 7.28716 131.463 16.0411H131.775V15.0207H132.448V16.0411H133.505V16.5956H132.448V18.984C132.448 19.1812 132.49 19.3217 132.574 19.4055C132.657 19.4843 132.803 19.5238 133.01 19.5238H133.505V20.0931H132.899C132.524 20.0931 132.243 20.0069 132.056 19.8343C131.869 19.6618 131.775 19.3783 131.775 18.984V16.5956H131.43ZM153.911 16.9654C153.743 17.2759 153.66 17.6382 153.66 18.0523C153.66 18.4615 153.743 18.8262 153.911 19.1467C154.079 19.4671 154.308 19.716 154.599 19.8935C154.894 20.0709 155.222 20.1597 155.582 20.1597C155.932 20.1597 156.238 20.0833 156.499 19.9305C156.76 19.7727 156.957 19.5731 157.09 19.3315V20.0931H157.771V14.6214H157.09V16.7657C156.948 16.5291 156.74 16.3393 156.469 16.1964C156.198 16.0485 155.905 15.9745 155.589 15.9745C155.225 15.9745 154.894 16.0608 154.599 16.2333C154.308 16.4059 154.079 16.6499 153.911 16.9654ZM156.906 17.2611C157.029 17.4879 157.09 17.7541 157.09 18.0597C157.09 18.3653 157.029 18.634 156.906 18.8657C156.782 19.0924 156.615 19.2674 156.403 19.3907C156.196 19.509 155.967 19.5681 155.715 19.5681C155.464 19.5681 155.235 19.509 155.027 19.3907C154.82 19.2674 154.655 19.0924 154.532 18.8657C154.409 18.634 154.347 18.3629 154.347 18.0523C154.347 17.7467 154.409 17.4805 154.532 17.2537C154.655 17.027 154.82 16.8544 155.027 16.7361C155.235 16.6178 155.464 16.5587 155.715 16.5587C155.967 16.5587 156.196 16.6203 156.403 16.7435C156.615 16.8618 156.782 17.0344 156.906 17.2611ZM138.018 17.9118C138.018 18.04 138.01 18.1755 137.995 18.3185H134.757C134.781 18.7178 134.917 19.0308 135.163 19.2576C135.415 19.4794 135.718 19.5903 136.073 19.5903C136.364 19.5903 136.605 19.5238 136.798 19.3907C136.995 19.2526 137.133 19.0703 137.212 18.8435H137.936C137.828 19.2329 137.611 19.5509 137.286 19.7974C136.96 20.0389 136.556 20.1597 136.073 20.1597C135.688 20.1597 135.343 20.0734 135.038 19.9009C134.737 19.7283 134.5 19.4843 134.328 19.1688C134.155 18.8484 134.069 18.4787 134.069 18.0597C134.069 17.6407 134.153 17.2734 134.32 16.958C134.488 16.6425 134.722 16.4009 135.023 16.2333C135.329 16.0608 135.679 15.9745 136.073 15.9745C136.457 15.9745 136.798 16.0583 137.093 16.2259C137.389 16.3935 137.616 16.6252 137.774 16.921C137.936 17.2118 138.018 17.5421 138.018 17.9118ZM137.323 17.7713C137.323 17.515 137.266 17.2956 137.152 17.1132C137.039 16.9259 136.884 16.7854 136.687 16.6918C136.494 16.5932 136.28 16.5439 136.043 16.5439C135.703 16.5439 135.412 16.6523 135.171 16.8692C134.934 17.0861 134.799 17.3868 134.764 17.7713H137.323ZM140.081 16.1594C139.865 16.2875 139.697 16.4675 139.579 16.6992V16.0411H138.906V20.0931H139.579V17.8896C139.579 17.0713 139.956 16.6622 140.71 16.6622H140.887V15.9671C140.572 15.9671 140.303 16.0312 140.081 16.1594ZM141.413 18.0597C141.413 17.6407 141.497 17.2759 141.664 16.9654C141.832 16.6499 142.063 16.4059 142.359 16.2333C142.66 16.0608 143.003 15.9745 143.387 15.9745C143.885 15.9745 144.294 16.0953 144.614 16.3368C144.94 16.5784 145.154 16.9136 145.258 17.3425H144.533C144.464 17.096 144.329 16.9013 144.126 16.7583C143.929 16.6154 143.683 16.5439 143.387 16.5439C143.003 16.5439 142.692 16.677 142.455 16.9432C142.219 17.2044 142.1 17.5766 142.1 18.0597C142.1 18.5477 142.219 18.9248 142.455 19.191C142.692 19.4572 143.003 19.5903 143.387 19.5903C143.683 19.5903 143.929 19.5213 144.126 19.3833C144.324 19.2452 144.459 19.0481 144.533 18.7917H145.258C145.149 19.2058 144.932 19.5386 144.607 19.79C144.282 20.0364 143.875 20.1597 143.387 20.1597C143.003 20.1597 142.66 20.0734 142.359 19.9009C142.063 19.7283 141.832 19.4843 141.664 19.1688C141.497 18.8534 141.413 18.4836 141.413 18.0597ZM146.156 16.9654C145.988 17.2759 145.904 17.6382 145.904 18.0523C145.904 18.4615 145.988 18.8262 146.156 19.1467C146.323 19.4671 146.552 19.716 146.843 19.8935C147.134 20.0709 147.459 20.1597 147.819 20.1597C148.169 20.1597 148.475 20.0833 148.736 19.9305C149.002 19.7727 149.202 19.5755 149.335 19.3389V20.0931H150.015V16.0411H149.335V16.7805C149.207 16.5488 149.012 16.3566 148.751 16.2037C148.49 16.0509 148.182 15.9745 147.827 15.9745C147.467 15.9745 147.139 16.0608 146.843 16.2333C146.552 16.4059 146.323 16.6499 146.156 16.9654ZM149.15 17.2611C149.274 17.4879 149.335 17.7541 149.335 18.0597C149.335 18.3653 149.274 18.634 149.15 18.8657C149.027 19.0924 148.859 19.2674 148.647 19.3907C148.44 19.509 148.211 19.5681 147.96 19.5681C147.708 19.5681 147.479 19.509 147.272 19.3907C147.065 19.2674 146.9 19.0924 146.777 18.8657C146.654 18.634 146.592 18.3629 146.592 18.0523C146.592 17.7467 146.654 17.4805 146.777 17.2537C146.9 17.027 147.065 16.8544 147.272 16.7361C147.479 16.6178 147.708 16.5587 147.96 16.5587C148.211 16.5587 148.44 16.6203 148.647 16.7435C148.859 16.8618 149.027 17.0344 149.15 17.2611ZM151.825 16.6992C151.944 16.4675 152.111 16.2875 152.328 16.1594C152.55 16.0312 152.819 15.9671 153.134 15.9671V16.6622H152.957C152.203 16.6622 151.825 17.0713 151.825 17.8896V20.0931H151.153V16.0411H151.825V16.6992Z" fill="#D3EAFF" fill-opacity="0.5"/>
<path fill-rule="evenodd" clip-rule="evenodd" d="M227.611 7.39186C225.299 7.48754 223.306 8.13761 221.854 9.27035C221.582 9.48261 221.063 9.98581 220.863 10.2327C220.173 11.0819 219.775 12.0326 219.631 13.1819C219.602 13.4149 219.602 14.2347 219.632 14.44C219.83 15.8204 220.586 16.889 222.069 17.8856C222.562 18.2175 222.952 18.4421 224.073 19.0397C224.491 19.2624 224.934 19.5035 225.058 19.5755C226.032 20.1417 226.495 20.5901 226.645 21.1144C226.696 21.2915 226.696 21.5635 226.645 21.7516C226.483 22.3462 225.922 22.8407 225.1 23.114C224.65 23.2633 224.172 23.3374 223.573 23.3506C222.132 23.3824 220.455 23.0256 219.02 22.3822C218.808 22.2868 218.497 22.1309 218.453 22.0981C218.442 22.0892 218.428 22.086 218.423 22.0911C218.404 22.1099 217.498 26.3075 217.51 26.319C217.535 26.3411 217.914 26.481 218.237 26.587C219.314 26.9406 220.554 27.1993 221.72 27.3136C222.725 27.4121 223.779 27.415 224.707 27.3219C227.564 27.0355 229.846 25.8675 231.041 24.0799C231.719 23.0646 232.044 21.9039 232.012 20.6079C231.999 20.09 231.937 19.7102 231.798 19.2826C231.398 18.0578 230.506 17.0715 228.946 16.1275C228.59 15.912 228.166 15.6792 227.436 15.2974C226.61 14.8657 226.299 14.6917 225.976 14.4809C225.66 14.275 225.49 14.1417 225.323 13.9711C225.033 13.673 224.907 13.4045 224.907 13.0839C224.907 12.3736 225.618 11.7653 226.727 11.5259C227.33 11.3957 228.149 11.3773 228.979 11.4754C229.93 11.5878 231.023 11.8794 231.851 12.2415C231.964 12.291 232.058 12.3296 232.061 12.3272C232.063 12.3248 232.265 11.4188 232.508 10.3138C232.752 9.20884 232.956 8.29185 232.961 8.27607C232.972 8.24135 232.922 8.21895 232.576 8.1016C231.572 7.76208 230.33 7.51523 229.205 7.43123C229.076 7.42166 228.926 7.41019 228.871 7.40576C228.745 7.3956 227.778 7.38493 227.611 7.39186ZM187.136 7.71248C187.125 7.7451 187.028 8.30272 187.033 8.30752C187.035 8.30992 187.15 8.33466 187.287 8.36252C188.356 8.57954 189.46 8.89276 190.429 9.25391C191.281 9.57138 191.589 9.69825 191.883 9.85348C192.412 10.1325 192.762 10.4626 192.957 10.8657C193.116 11.1961 193.106 11.1616 194.012 14.587C194.384 15.9934 194.718 17.2544 194.753 17.3892C194.818 17.632 196.284 23.172 196.438 23.7531C196.482 23.9194 196.697 24.7336 196.916 25.5626L197.315 27.0698L200.002 27.0699L202.689 27.0699L206.819 17.3953C209.09 12.0743 210.951 7.71427 210.954 7.70638C210.957 7.6982 209.811 7.69205 208.282 7.69205H205.604L205.576 7.76149C205.56 7.79968 204.368 10.7535 202.927 14.3256C201.486 17.8977 200.301 20.8313 200.293 20.8448C200.282 20.8621 200.278 20.8631 200.278 20.8482C200.277 20.8063 198.107 9.64016 198.066 9.46689C197.912 8.8111 197.498 8.28036 196.905 7.97895C196.613 7.83013 196.312 7.74455 195.957 7.70926C195.687 7.68235 187.145 7.68547 187.136 7.71248ZM213.105 7.73698C213.1 7.76169 212.159 12.0978 211.015 17.3728C209.871 22.6478 208.931 26.9876 208.926 27.0168L208.917 27.0699H211.469H214.021L216.105 17.4259C217.251 12.1217 218.192 7.76169 218.196 7.73698L218.203 7.69205H215.659H213.114L213.105 7.73698ZM241.278 7.71081C240.434 7.79657 239.815 8.27708 239.375 9.18706C239.32 9.29914 231.9 26.7302 231.771 27.0495C231.764 27.0658 232.305 27.0699 234.441 27.0699H237.119L237.322 26.494C237.434 26.1772 237.666 25.5193 237.837 25.0319L238.149 24.1458L241.416 24.1455C243.212 24.1454 244.682 24.1471 244.683 24.1493C244.683 24.1516 244.824 24.8078 244.996 25.6076L245.308 27.0617L247.675 27.0659C249.924 27.0698 250.041 27.0686 250.032 27.0414C250.023 27.0105 245.917 7.71372 245.917 7.7002C245.917 7.68566 241.424 7.69594 241.278 7.71081ZM243.097 16.5544C243.528 18.5305 243.881 20.1609 243.881 20.1775C243.881 20.2066 243.81 20.2076 241.76 20.2076C240.071 20.2076 239.641 20.2035 239.646 20.1872C239.748 19.8926 242.305 12.9377 242.308 12.9474C242.31 12.955 242.665 14.5782 243.097 16.5544Z" fill="#D3EAFF"/>
<path d="M271.033 3.38965H273.876V20.1933H271.033V3.38965Z" fill="#D3EAFF"/>
<path d="M275.686 3.38965H276.979V20.1933H275.686V3.38965Z" fill="#D3EAFF"/>
<path d="M279.305 3.38965H281.632V20.1933H279.305V3.38965Z" fill="#D3EAFF"/>
<path d="M283.7 3.38965H285.251V20.1933H283.7V3.38965Z" fill="#D3EAFF"/>
<path d="M287.319 3.38965H290.939V20.1933H287.319V3.38965Z" fill="#D3EAFF"/>
<path d="M307.484 3.38965H310.586V20.1933H307.484V3.38965Z" fill="#D3EAFF"/>
<path d="M293.524 3.38965H295.851V20.1933H293.524V3.38965Z" fill="#D3EAFF"/>
<path d="M312.654 3.38965H314.722V20.1933H312.654V3.38965Z" fill="#D3EAFF"/>
<path d="M298.177 3.38965H299.987V20.1933H298.177V3.38965Z" fill="#D3EAFF"/>
<path d="M316.791 3.38965H318.342V20.1933H316.791V3.38965Z" fill="#D3EAFF"/>
<path d="M302.831 3.38965H304.64V20.1933H302.831V3.38965Z" fill="#D3EAFF"/>
<path d="M320.668 3.38965H323.512V20.1933H320.668V3.38965Z" fill="#D3EAFF"/>
<path d="M276.61 26.8883C277.045 27.0293 277.39 27.2668 277.645 27.6007C277.9 27.9272 278.027 28.3353 278.027 28.825C278.027 29.5003 277.765 30.0234 277.24 30.3945C276.715 30.7581 275.951 30.9399 274.946 30.9399H271.033V23.1484H274.721C275.651 23.1484 276.367 23.3302 276.869 23.6938C277.371 24.05 277.622 24.5435 277.622 25.1742C277.622 25.5601 277.532 25.9014 277.352 26.1982C277.173 26.495 276.925 26.7251 276.61 26.8883ZM272.495 24.2837V26.432H274.564C275.073 26.432 275.463 26.3429 275.733 26.1648C276.011 25.9793 276.149 25.7122 276.149 25.3634C276.149 25.0072 276.011 24.7401 275.733 24.562C275.463 24.3765 275.073 24.2837 274.564 24.2837H272.495ZM274.856 29.8045C275.988 29.8045 276.554 29.4298 276.554 28.6803C276.554 27.9309 275.988 27.5562 274.856 27.5562H272.495V29.8045H274.856Z" fill="#D3EAFF"/>
<path d="M284.389 31.0512C283.587 31.0512 282.863 30.8805 282.219 30.5392C281.574 30.1904 281.068 29.7118 280.701 29.1033C280.333 28.4874 280.15 27.801 280.15 27.0441C280.15 26.2873 280.333 25.6046 280.701 24.9961C281.068 24.3802 281.574 23.9016 282.219 23.5602C282.863 23.2115 283.587 23.0371 284.389 23.0371C285.191 23.0371 285.915 23.2115 286.559 23.5602C287.204 23.9016 287.71 24.3765 288.077 24.985C288.445 25.5934 288.628 26.2798 288.628 27.0441C288.628 27.8084 288.445 28.4948 288.077 29.1033C287.71 29.7118 287.204 30.1904 286.559 30.5392C285.915 30.8805 285.191 31.0512 284.389 31.0512ZM284.389 29.7823C284.914 29.7823 285.386 29.6673 285.806 29.4372C286.226 29.1998 286.555 28.8733 286.795 28.4577C287.035 28.0348 287.155 27.5636 287.155 27.0441C287.155 26.5247 287.035 26.0572 286.795 25.6417C286.555 25.2187 286.226 24.8922 285.806 24.6622C285.386 24.4247 284.914 24.306 284.389 24.306C283.864 24.306 283.392 24.4247 282.972 24.6622C282.552 24.8922 282.222 25.2187 281.983 25.6417C281.743 26.0572 281.623 26.5247 281.623 27.0441C281.623 27.5636 281.743 28.0348 281.983 28.4577C282.222 28.8733 282.552 29.1998 282.972 29.4372C283.392 29.6673 283.864 29.7823 284.389 29.7823Z" fill="#D3EAFF"/>
<path d="M291.302 23.1484H292.764V29.7155H296.88V30.9399H291.302V23.1484Z" fill="#D3EAFF"/>
<path d="M305.062 29.7266V30.9399H299.158V23.1484H304.905V24.3617H300.62V26.3874H304.421V27.5784H300.62V29.7266H305.062Z" fill="#D3EAFF"/>
<path d="M309.413 24.3728H306.804V23.1484H313.484V24.3728H310.875V30.9399H309.413V24.3728Z" fill="#D3EAFF"/>
<path d="M319.273 31.0512C318.47 31.0512 317.747 30.8805 317.102 30.5392C316.458 30.1904 315.952 29.7118 315.584 29.1033C315.217 28.4874 315.033 27.801 315.033 27.0441C315.033 26.2873 315.217 25.6046 315.584 24.9961C315.952 24.3802 316.458 23.9016 317.102 23.5602C317.747 23.2115 318.47 23.0371 319.273 23.0371C320.075 23.0371 320.798 23.2115 321.443 23.5602C322.088 23.9016 322.594 24.3765 322.961 24.985C323.328 25.5934 323.512 26.2798 323.512 27.0441C323.512 27.8084 323.328 28.4948 322.961 29.1033C322.594 29.7118 322.088 30.1904 321.443 30.5392C320.798 30.8805 320.075 31.0512 319.273 31.0512ZM319.273 29.7823C319.797 29.7823 320.27 29.6673 320.69 29.4372C321.109 29.1998 321.439 28.8733 321.679 28.4577C321.919 28.0348 322.039 27.5636 322.039 27.0441C322.039 26.5247 321.919 26.0572 321.679 25.6417C321.439 25.2187 321.109 24.8922 320.69 24.6622C320.27 24.4247 319.797 24.306 319.273 24.306C318.748 24.306 318.276 24.4247 317.856 24.6622C317.436 24.8922 317.106 25.2187 316.866 25.6417C316.626 26.0572 316.506 26.5247 316.506 27.0441C316.506 27.5636 316.626 28.0348 316.866 28.4577C317.106 28.8733 317.436 29.1998 317.856 29.4372C318.276 29.6673 318.748 29.7823 319.273 29.7823Z" fill="#D3EAFF"/>
<path fill-rule="evenodd" clip-rule="evenodd" d="M347.52 6.91365C347.596 6.72807 347.756 6.55409 347.932 6.46415L348.074 6.39117L351.697 6.40176C354.904 6.41116 355.351 6.41817 355.591 6.46265C356.366 6.60641 356.871 6.76127 357.352 7.00286C358.483 7.57147 359.151 8.47545 359.414 9.79352C359.492 10.1863 359.522 11.1101 359.473 11.6112C359.338 12.9984 358.958 14.3181 358.421 15.2695C357.537 16.8364 356.169 17.7834 354.279 18.1356C353.681 18.247 353.365 18.267 351.897 18.2862L350.442 18.3053L350.29 18.3952C350.128 18.4914 349.996 18.6453 349.929 18.8186C349.906 18.8773 349.733 19.9733 349.544 21.2541L349.543 21.261C349.218 23.4703 349.176 23.7513 349.026 23.923C349.004 23.948 348.98 23.9707 348.952 23.9967L348.952 23.9973C348.894 24.0512 348.789 24.1242 348.718 24.1596C348.591 24.222 348.544 24.2241 347.047 24.2332C346 24.2396 345.473 24.232 345.401 24.2095C345.178 24.1397 345.033 23.9371 345.033 23.6957C345.033 23.617 345.579 19.8404 346.247 15.3034C347.134 9.28031 347.478 7.01619 347.52 6.91365ZM354.949 11.25C354.799 10.5674 354.359 10.1891 353.536 10.0351C353.338 9.99811 353.03 9.98117 352.382 9.97156C351.499 9.95854 351.497 9.95863 351.383 10.029L351.382 10.0298C351.355 10.0469 351.331 10.0618 351.309 10.0799C351.165 10.2006 351.126 10.4664 350.828 12.5013L350.826 12.5151C350.654 13.6932 350.513 14.6661 350.513 14.677C350.513 14.7176 352.686 14.6659 352.924 14.6196C353.574 14.4936 353.959 14.3036 354.294 13.944C354.541 13.6787 354.684 13.427 354.81 13.0342C354.975 12.5197 355.041 11.6675 354.949 11.25ZM361.792 13.0527C362.55 12.5502 363.429 12.2092 364.279 12.0871C364.652 12.0336 365.454 12.0235 365.865 12.0673C367.189 12.2081 368.021 12.6134 368.507 13.3552C368.593 13.4869 368.668 13.5898 368.674 13.5837C368.68 13.5776 368.712 13.3882 368.745 13.1627C368.82 12.657 368.87 12.5254 369.03 12.4118L369.152 12.3257L370.674 12.317C371.694 12.3113 372.233 12.3192 372.309 12.3412C372.372 12.3592 372.467 12.4213 372.522 12.4792C372.536 12.4946 372.55 12.5066 372.562 12.5176C372.574 12.5276 372.584 12.5368 372.594 12.5472C372.712 12.6761 372.668 12.9769 372.07 17.0316C372.016 17.392 371.959 17.7822 371.897 18.2045C371.29 22.3254 371.091 23.6128 371.045 23.718C370.967 23.8954 370.797 24.0756 370.63 24.1582C370.501 24.2221 370.46 24.2241 369.093 24.2328C368.158 24.2388 367.65 24.2308 367.575 24.2091C367.423 24.1653 367.274 24.0097 367.228 23.8465C367.196 23.7311 367.199 23.6609 367.254 23.2978C367.289 23.0688 367.317 22.8613 367.317 22.8367C367.316 22.8111 367.252 22.8575 367.167 22.9457C366.547 23.5817 365.672 24.0852 364.753 24.3343C363.731 24.6113 362.502 24.5685 361.53 24.222C360.165 23.7357 359.164 22.5163 358.776 20.8679C358.378 19.1772 358.697 17.0896 359.6 15.4758C360.153 14.4893 360.943 13.6147 361.792 13.0527ZM374.077 12.8531C374.077 12.6412 374.245 12.4051 374.442 12.34C374.485 12.3259 375.219 12.317 376.074 12.32L377.629 12.3257L377.758 12.3976C377.918 12.4877 378.089 12.6592 378.156 12.799C378.185 12.858 378.583 14.2514 379.042 15.8955C379.501 17.5397 379.885 18.9024 379.895 18.9238C379.907 18.9474 380.69 17.7356 381.896 15.8295C382.985 14.1063 383.926 12.6425 383.987 12.5766C384.047 12.5107 384.156 12.4273 384.229 12.3912C384.359 12.3271 384.395 12.3255 385.916 12.3162C386.978 12.3097 387.505 12.3172 387.577 12.3399C387.704 12.3797 387.843 12.4993 387.9 12.6176C387.95 12.7208 387.955 12.9894 387.909 13.0828C387.847 13.2072 378.263 28.0368 378.189 28.1229C378.148 28.17 378.037 28.2493 377.943 28.2991L377.771 28.3896L376.143 28.3813L374.515 28.3729L374.41 28.2874C374.23 28.1404 374.158 27.9106 374.227 27.7007C374.249 27.6342 374.935 26.5694 375.751 25.3346C376.567 24.0998 377.244 23.0735 377.256 23.0538C377.267 23.0342 376.557 20.7526 375.677 17.9838C374.797 15.2149 374.077 12.9061 374.077 12.8531ZM368.06 16.8634C367.811 16.0891 367.22 15.5529 366.42 15.3775C366.19 15.3272 365.656 15.2953 365.448 15.3194C364.678 15.4084 363.915 15.8045 363.427 16.3677C362.82 17.0687 362.477 18.0858 362.533 19.0191C362.57 19.6385 362.764 20.1341 363.118 20.5156C363.442 20.8653 363.799 21.0658 364.292 21.1754C364.642 21.2531 365.274 21.2484 365.633 21.1655C366.818 20.8922 367.669 20.0747 368.039 18.8544C368.249 18.1592 368.256 17.4762 368.06 16.8634Z" fill="#D3EAFF"/>
<path d="M418.505 6.46857C418.427 6.51848 418.367 6.58935 418.329 6.67423C418.287 6.77057 417.957 8.95613 417.042 15.2087C416.366 19.8314 415.813 23.6587 415.813 23.7138C415.815 23.9414 415.969 24.1466 416.187 24.2092C416.262 24.2309 416.748 24.2388 417.633 24.2328L418.966 24.2238L419.117 24.151C419.313 24.0559 419.506 23.8274 419.566 23.6189C419.615 23.4475 422.033 7.05573 422.033 6.89562C422.033 6.74559 421.917 6.5392 421.788 6.46101L421.676 6.39288L420.15 6.39267L418.624 6.39245L418.505 6.46857Z" fill="#D3EAFF" fill-opacity="0.7"/>
<path fill-rule="evenodd" clip-rule="evenodd" d="M407.284 12.0552C407.245 12.0612 407.097 12.0816 406.956 12.1004C406.815 12.1192 406.551 12.1733 406.371 12.2206C403.858 12.8786 401.947 15.123 401.45 17.9998C401.195 19.4819 401.344 20.8154 401.9 21.9983C402.706 23.7148 404.22 24.5799 406.285 24.5046C406.784 24.4864 407.091 24.4394 407.555 24.3099C408.352 24.0875 409.177 23.619 409.794 23.0391C409.928 22.9137 410.04 22.8146 410.045 22.819C410.049 22.8233 410.026 22.9971 409.995 23.205C409.963 23.413 409.937 23.6351 409.937 23.6985C409.937 23.9403 410.086 24.1447 410.31 24.2091C410.385 24.2308 410.889 24.2388 411.813 24.2328L413.203 24.2238L413.366 24.1382C413.572 24.0303 413.745 23.8237 413.803 23.6173C413.86 23.4125 415.386 13.0337 415.386 12.8472C415.386 12.6064 415.242 12.408 415.021 12.3423C414.871 12.2976 412.043 12.2996 411.892 12.3444C411.829 12.363 411.731 12.4282 411.674 12.4894C411.559 12.6123 411.539 12.6856 411.455 13.2824L411.406 13.629L411.269 13.4143C410.768 12.6299 409.931 12.2118 408.572 12.0673C408.297 12.0381 407.446 12.0301 407.284 12.0552ZM410.749 18.895C411.269 17.2297 410.627 15.7573 409.221 15.3917C408.985 15.3304 408.363 15.2887 408.14 15.3192C406.544 15.5365 405.422 16.7842 405.26 18.5191C405.176 19.4283 405.467 20.2564 406.032 20.7145C406.61 21.1825 407.454 21.3508 408.332 21.1727C409.475 20.9407 410.374 20.0937 410.749 18.895Z" fill="#D3EAFF" fill-opacity="0.7"/>
<path fill-rule="evenodd" clip-rule="evenodd" d="M390.631 6.48407C390.444 6.58392 390.343 6.69061 390.25 6.8847C390.207 6.97485 389.899 9.00687 388.964 15.364C387.856 22.8958 387.738 23.7367 387.768 23.8449C387.811 23.9982 387.967 24.1658 388.105 24.2068C388.262 24.2532 391.298 24.2505 391.471 24.2038C391.64 24.1584 391.832 23.9649 391.876 23.7967C391.894 23.7296 392.062 22.6176 392.251 21.3255C392.439 20.0335 392.614 18.916 392.64 18.8421C392.697 18.6753 392.846 18.495 393.016 18.389C393.169 18.2931 393.116 18.2962 394.86 18.2779C396.171 18.264 396.528 18.2354 397.214 18.0887C398.02 17.9162 398.693 17.6475 399.296 17.2584C400.798 16.2886 401.741 14.6154 402.103 12.2799C402.415 10.2696 402.11 8.8172 401.166 7.8105C400.516 7.11867 399.632 6.70022 398.345 6.47516C397.977 6.41094 397.895 6.40936 394.389 6.39963L390.808 6.38965L390.631 6.48407ZM397.105 10.3513C396.946 10.2348 396.59 10.0962 396.292 10.035C396.001 9.97532 394.276 9.94185 394.161 9.99371C394.066 10.0366 393.966 10.1395 393.913 10.2469C393.89 10.295 393.727 11.3109 393.551 12.5045L393.23 14.6748L394.102 14.6839C394.985 14.693 395.456 14.6649 395.841 14.5799C396.931 14.3391 397.501 13.6438 397.683 12.3313C397.815 11.3763 397.629 10.7371 397.105 10.3513Z" fill="#D3EAFF" fill-opacity="0.7"/>
</g>
</svg>
